<svg viewBox="0 0 105.92 26" xmlns="http://www.w3.org/2000/svg"><g fill="none" stroke="#fff" stroke-linecap="round" stroke-linejoin="round" stroke-width="2"><path d="m26.392 10-10.392-6-10.392 6-.0000003 12 10.3920003 6m0-24v12m10.392 6-10.392-6v12m0-12-10.392-6" transform="translate(78.5303 -3)"/><path d="m16 4-10.392 6-.0000003 12 10.3920003 6 10.392-6m0 0-10.392-6m-10.392 6 10.392-6" transform="translate(57.7463 -3)"/><path d="m26.392 10-10.392-6-10.392 6-.0000003 12 10.3920003 6m0-24v12l10.392-6m-10.392 6v12m-10.392-6 10.392-6" transform="translate(36.9613 -3)"/><path d="m16 16 10.392-6m-10.392 6v12m0-12-10.392-6" transform="translate(16.1773 -3)"/><path d="m16 4-10.392 6-.0000003 12 10.3920003 6 10.392-6m-10.392-18v12l10.392-6m0 12-10.392-6" transform="translate(-4.6077 -3)"/></g></svg>